<svg width="500" height="344" viewBox="0 0 500 344" fill="none" xmlns="http://www.w3.org/2000/svg">
<path d="M163 15.6C135.3 28.7 134.5 29.1 134.8 31.8C135 33.3 136.4 41.9 138 50.9L141 67.4L133.5 74.9C129.3 79.1 123.6 85.7 120.7 89.7C117.9 93.6 115.1 96.9 114.6 96.9C114.2 97 97.7 87.3 78.1 75.4C58.5 63.5 42.1 53.5 41.6 53.2C40.6 52.6 41.2 54.8 45.5 66.5C47.3 71.4 51.9 84 55.8 94.5C60.4 107.2 62.4 113.7 61.6 114.1C61 114.5 47.3 117.4 31.2 120.5C15.1 123.7 2.1 126.7 2.2 127.1C2.4 127.5 13.8 135.2 27.5 144.3C41.3 153.3 52.5 161.2 52.5 161.8C52.5 162.4 42.4 173.3 30 186.1C8 208.8 7.7 209.2 11.5 208.6C13.7 208.3 25.2 206.9 37 205.5C48.8 204 65.3 202 73.5 201C81.8 200 88.8 199.4 89.1 199.8C89.4 200.2 90.4 205.4 91.4 211.5C100.7 268.5 142.9 317.3 198.7 335.6C210.4 339.4 231 343.4 232.3 342.1C232.8 341.6 234.6 335.4 236.4 328.4L239.6 315.5L248.2 315.2L256.7 314.9L259.9 327.8C261.7 334.8 263.4 341.1 263.8 341.7C264.3 342.5 267 342.4 273.5 341.4C338.2 331.7 391.3 282.9 405.9 219.8C407 215.3 408.2 208.9 408.6 205.7C408.9 202.6 409.5 199.8 409.9 199.6C410.5 199.2 419.9 200.3 470.9 206.5C482.2 207.9 491.5 208.8 491.7 208.6C491.9 208.4 482.6 198.9 471 187.4C459.3 175.9 449 165.3 448 163.9L446.1 161.4L472.1 144.6C486.3 135.3 498 127.4 498 127C498 126.6 484.4 123.6 467.8 120.3C439.3 114.8 437.5 114.3 437.7 112.3C437.9 110.4 442.7 97.1 455.1 64.1C457.2 58.3 458.8 53.5 458.7 53.4C458.5 53.2 441.8 63 421.5 75C401.2 87.1 384.3 97 383.9 97C383.6 97 380.4 93.3 376.9 88.7C373.4 84.2 367.5 77.5 363.8 73.8L357.1 67.1L360.6 48.3C362.5 38 363.7 29.3 363.3 29C362.8 28.6 349.5 22.3 333.6 15L304.7 1.69998L291.9 15.2L279.2 28.6L270.8 27.4C260.1 25.8 236.9 25.8 226.1 27.4L217.8 28.6L205.2 15.3C198.3 7.99997 192.3 1.99997 192 1.99997C191.7 2.09998 178.7 8.09998 163 15.6ZM212.7 93C218.9 95.8 226.4 103.2 229.1 109.3C232.3 116.4 232.4 128.4 229.3 135.2C226.3 141.8 219.7 148.5 213.1 151.7C208.3 154.1 206.3 154.5 199 154.5C192 154.5 189.6 154.1 185.5 152C169.4 144.1 162.4 125.1 169.9 109.5C173.1 102.7 179.9 95.9 186.3 92.9C192.2 90.3 206.8 90.3 212.7 93ZM313.7 93.5C319.8 96.6 326.4 103.4 329.3 109.8C332.3 116.3 332.3 128.5 329.3 135.2C326.3 141.8 319.8 148.5 313.1 151.7C308.3 154.1 306.3 154.5 299 154.5C291.6 154.5 289.8 154.1 284.7 151.6C278.3 148.3 273.3 143.4 269.8 136.8C267.9 133.2 267.5 131 267.5 123C267.5 115.1 267.9 112.7 269.8 108.8C272.8 102.7 278.8 96.8 285.3 93.6C289.6 91.4 291.7 91 299.5 91C307.3 91 309.4 91.4 313.7 93.5ZM190 226C190 258.4 189.7 266 188.7 266C186.7 266 169.3 257 162.7 252.6L157 248.8L157.2 219.1L157.5 189.5L169.5 187.9C176.1 187 183.4 186.2 185.8 186.1L190 186V226ZM211.6 197.7C216 206.9 226.7 218.6 233.9 222L239 224.4L238.8 250.4L238.5 276.4L233.5 276.2C227.9 275.9 218.1 274.4 210.8 272.9L206 271.8L206.1 228.7C206.1 197.5 206.4 186.2 207.2 188C207.8 189.4 209.8 193.7 211.6 197.7ZM291.5 228.7C291.1 252.3 290.7 271.6 290.6 271.7C290 272.4 272.8 275.2 266.3 275.7L258 276.3L257.8 253.6C257.7 241.2 257.6 229.6 257.6 227.8C257.5 225 258.1 224.4 262.9 221.9C265.9 220.3 269.9 217.6 271.8 215.8C279.5 208.4 287.7 195.8 289.4 188.7C289.7 187.2 290.5 186 291.2 186C292 186 292.1 197.5 291.5 228.7ZM327.5 187.8L340.5 189.5L340.8 218.7L341 247.8L337.3 250.9C333.2 254.3 310.8 266 308.5 266C307.2 266 307 260.6 307 226.7C307 205 307.3 187 307.7 186.7C308.6 185.7 312.8 186 327.5 187.8ZM139 211C139 221.4 138.7 230 138.3 230C136 229.9 126.3 212.1 123.6 203.1C121.1 194.4 121.1 194.4 128.8 193.3C132.5 192.7 136.3 192.2 137.3 192.1C138.9 192 139 193.5 139 211ZM371.3 193.6C374.4 193.9 377 194.6 377 195C377 196.8 372.6 209.8 370.8 213.5C368.2 218.9 360.7 230 359.8 230C359.3 230 359 221.4 359 210.9V191.8L362.3 192.3C364 192.6 368.1 193.2 371.3 193.6Z" fill="#C0C0C0"/>
</svg>
