<svg width="496" height="342" viewBox="0 0 496 342" fill="none" xmlns="http://www.w3.org/2000/svg">
<path d="M161 14.6C133.3 27.7 132.5 28.1 132.8 30.8C133 32.3 134.4 40.9 136 49.9L139 66.4L131.5 73.9C127.3 78.1 121.6 84.7 118.7 88.7C115.9 92.6 113.1 95.9 112.6 95.9C112.2 96 95.7 86.3 76.1 74.4C56.5 62.5 40.1 52.5 39.6 52.2C38.6 51.6 39.2 53.8 43.5 65.5C45.3 70.4 49.9 83 53.8 93.5C58.4 106.2 60.4 112.7 59.6 113.1C59 113.5 45.3 116.4 29.2 119.5C13.1 122.7 0.0999978 125.7 0.199998 126.1C0.399998 126.5 11.8 134.2 25.5 143.3C39.3 152.3 50.5 160.2 50.5 160.8C50.5 161.4 40.4 172.3 28 185.1C6 207.8 5.7 208.2 9.5 207.6C11.7 207.3 23.2 205.9 35 204.5C46.8 203 63.3 201 71.5 200C79.8 199 86.8 198.4 87.1 198.8C87.4 199.2 88.4 204.4 89.4 210.5C98.7 267.5 140.9 316.3 196.7 334.6C208.4 338.4 229 342.4 230.3 341.1C230.8 340.6 232.6 334.4 234.4 327.4L237.6 314.5L246.2 314.2L254.7 313.9L257.9 326.8C259.7 333.8 261.4 340.1 261.8 340.7C262.3 341.5 265 341.4 271.5 340.4C336.2 330.7 389.3 281.9 403.9 218.8C405 214.3 406.2 207.9 406.6 204.7C406.9 201.6 407.5 198.8 407.9 198.6C408.5 198.2 417.9 199.3 468.9 205.5C480.2 206.9 489.5 207.8 489.7 207.6C489.9 207.4 480.6 197.9 469 186.4C457.3 174.9 447 164.3 446 162.9L444.1 160.4L470.1 143.6C484.3 134.3 496 126.4 496 126C496 125.6 482.4 122.6 465.8 119.3C437.3 113.8 435.5 113.3 435.7 111.3C435.9 109.4 440.7 96.1 453.1 63.1C455.2 57.3 456.8 52.5 456.7 52.4C456.5 52.2 439.8 62 419.5 74C399.2 86.1 382.3 96 381.9 96C381.6 96 378.4 92.3 374.9 87.7C371.4 83.2 365.5 76.5 361.8 72.8L355.1 66.1L358.6 47.3C360.5 37 361.7 28.3 361.3 28C360.8 27.6 347.5 21.3 331.6 14L302.7 0.699983L289.9 14.2L277.2 27.6L268.8 26.4C258.1 24.8 234.9 24.8 224.1 26.4L215.8 27.6L203.2 14.3C196.3 6.99998 190.3 0.999983 190 0.999983C189.7 1.09998 176.7 7.09998 161 14.6ZM210.7 92C216.9 94.8 224.4 102.2 227.1 108.3C230.3 115.4 230.4 127.4 227.3 134.2C224.3 140.8 217.7 147.5 211.1 150.7C206.3 153.1 204.3 153.5 197 153.5C190 153.5 187.6 153.1 183.5 151C167.4 143.1 160.4 124.1 167.9 108.5C171.1 101.7 177.9 94.9 184.3 91.9C190.2 89.3 204.8 89.3 210.7 92ZM311.7 92.5C317.8 95.6 324.4 102.4 327.3 108.8C330.3 115.3 330.3 127.5 327.3 134.2C324.3 140.8 317.8 147.5 311.1 150.7C306.3 153.1 304.3 153.5 297 153.5C289.6 153.5 287.8 153.1 282.7 150.6C276.3 147.3 271.3 142.4 267.8 135.8C265.9 132.2 265.5 130 265.5 122C265.5 114.1 265.9 111.7 267.8 107.8C270.8 101.7 276.8 95.8 283.3 92.6C287.6 90.4 289.7 90 297.5 90C305.3 90 307.4 90.4 311.7 92.5ZM188 225C188 257.4 187.7 265 186.7 265C184.7 265 167.3 256 160.7 251.6L155 247.8L155.2 218.1L155.5 188.5L167.5 186.9C174.1 186 181.4 185.2 183.8 185.1L188 185V225ZM209.6 196.7C214 205.9 224.7 217.6 231.9 221L237 223.4L236.8 249.4L236.5 275.4L231.5 275.2C225.9 274.9 216.1 273.4 208.8 271.9L204 270.8L204.1 227.7C204.1 196.5 204.4 185.2 205.2 187C205.8 188.4 207.8 192.7 209.6 196.7ZM289.5 227.7C289.1 251.3 288.7 270.6 288.6 270.7C288 271.4 270.8 274.2 264.3 274.7L256 275.3L255.8 252.6C255.7 240.2 255.6 228.6 255.6 226.8C255.5 224 256.1 223.4 260.9 220.9C263.9 219.3 267.9 216.6 269.8 214.8C277.5 207.4 285.7 194.8 287.4 187.7C287.7 186.2 288.5 185 289.2 185C290 185 290.1 196.5 289.5 227.7ZM325.5 186.8L338.5 188.5L338.8 217.7L339 246.8L335.3 249.9C331.2 253.3 308.8 265 306.5 265C305.2 265 305 259.6 305 225.7C305 204 305.3 186 305.7 185.7C306.6 184.7 310.8 185 325.5 186.8ZM137 210C137 220.4 136.7 229 136.3 229C134 228.9 124.3 211.1 121.6 202.1C119.1 193.4 119.1 193.4 126.8 192.3C130.5 191.7 134.3 191.2 135.3 191.1C136.9 191 137 192.5 137 210ZM369.3 192.6C372.4 192.9 375 193.6 375 194C375 195.8 370.6 208.8 368.8 212.5C366.2 217.9 358.7 229 357.8 229C357.3 229 357 220.4 357 209.9V190.8L360.3 191.3C362 191.6 366.1 192.2 369.3 192.6Z" fill="#C0C0C0"/>
</svg>
